Coordinates
version=1
nRows=5
nColumns=63
inDegrees=yes

Units are S.I. units (second, meters, Newtons, ...)
If the header above contains a line with 'inDegrees', this indicates whether rotational values are in degrees (yes) or radians (no).

endheader
time	pelvis_tilt	pelvis_list	pelvis_rotation	pelvis_tx	pelvis_ty	pelvis_tz	hip_flexion_r	hip_adduction_r	hip_rotation_r	knee_angle_r	knee_angle_r_beta	ankle_angle_r	subtalar_angle_r	mtp_angle_r	hip_flexion_l	hip_adduction_l	hip_rotation_l	knee_angle_l	knee_angle_l_beta	ankle_angle_l	subtalar_angle_l	mtp_angle_l	L5_S1_Flex_Ext	L5_S1_Lat_Bending	L5_S1_axial_rotation	L4_L5_Flex_Ext	L4_L5_Lat_Bending	L4_L5_axial_rotation	L3_L4_Flex_Ext	L3_L4_Lat_Bending	L3_L4_axial_rotation	L2_L3_Flex_Ext	L2_L3_Lat_Bending	L2_L3_axial_rotation	L1_L2_Flex_Ext	L1_L2_Lat_Bending	L1_L2_axial_rotation	L1_T12_Flex_Ext	L1_T12_Lat_Bending	L1_T12_axial_rotation	Abs_r3	Abs_r2	Abs_r1	Abs_t1	Abs_t2	neck_flexion	neck_bending	neck_rotation	arm_flex_r	arm_add_r	arm_rot_r	elbow_flex_r	pro_sup_r	wrist_flex_r	wrist_dev_r	arm_flex_l	arm_add_l	arm_rot_l	elbow_flex_l	pro_sup_l	wrist_flex_l	wrist_dev_l
      0.00000000	     -3.17219941	     -5.85634110	     94.24220838	      0.19444149	      0.86345303	      0.81020062	     -2.06414559	     -4.83746978	     -8.45756667	      8.16693672	      0.14253994	     23.12421294	     11.53975155	      0.00000000	     -1.86594248	      1.93825886	     10.08742264	      3.72916714	      0.06508624	     23.26576788	     -8.86883909	      0.00000000	     -0.23112300	     -0.16435976	      0.87538254	     -0.42921852	     -0.21859848	      0.93009395	     -0.37971198	     -0.39962431	      0.93009395	     -0.26415048	     -0.39962431	      0.76595973	     -0.21462082	     -0.33516242	      0.71124832	     -0.13206368	     -0.25459326	      0.65653691	     -1.65088848	     -1.85927045	      4.86861510	      0.00000000	      0.00000000	      9.57810820	      5.21801474	      2.15174698	    -94.25397757	    -77.26573551	    -33.00428291	     10.36971532	      6.43802697	     -6.79462780	     -0.88700413	   -161.50668435	    -87.04969267	    -87.59019153	      9.43701236	     16.95344498	    -10.38462671	      1.02682402
      0.01694915	     -3.05622904	     -5.52298845	     94.45608925	      0.19375259	      0.86399762	      0.81047632	     -2.37282402	     -4.77921363	     -9.17241401	      8.32341013	      0.14527091	     22.66876774	     11.65241103	      0.00000000	     -2.15224011	      1.86127121	     10.10794698	      3.85538697	      0.06728920	     23.56634050	     -9.10110433	      0.00000000	     -0.26144371	     -0.14015064	      0.79985092	     -0.48552711	     -0.18640035	      0.84984160	     -0.42952587	     -0.34076226	      0.84984160	     -0.29880401	     -0.34076226	      0.69986955	     -0.24277663	     -0.28579518	      0.64987887	     -0.14938893	     -0.21709334	      0.59988819	     -1.86746626	     -1.58541205	      4.44853085	      0.00000000	      0.00000000	      8.50005633	      5.39962618	      1.98094657	    -94.65537391	    -77.39679593	    -32.47887450	     10.10861000	      6.30680675	     -6.86455018	     -1.07258225	   -161.48507962	    -87.21011638	    -87.65566927	      9.37269883	     16.84155637	    -10.33303138	      1.44559126
      0.03389831	     -3.01740336	     -5.59228771	     95.29700205	      0.19260138	      0.86402730	      0.81114814	     -2.37682052	     -4.86411925	    -11.51803538	      8.44069716	      0.14731796	     22.56021821	     13.41725397	      0.00000000	     -1.88911855	      1.84358010	     10.54128424	      4.13137154	      0.07210604	     23.84346701	     -8.82144925	      0.00000000	     -0.24190822	     -0.14171046	      0.62497356	     -0.44924776	     -0.18847492	      0.66403440	     -0.39743102	     -0.34455482	      0.66403440	     -0.27647691	     -0.34455482	      0.54685186	     -0.22463597	     -0.28897598	      0.50779101	     -0.13822636	     -0.21950951	      0.46873017	     -1.72792623	     -1.60305711	      3.47591542	      0.00000000	      0.00000000	      8.23827468	      5.50282351	      1.65238280	    -94.59129180	    -77.77689895	    -28.78398087	      9.72216098	      4.72291143	     -6.98889113	     -0.98573634	   -162.37755469	    -87.22261592	    -89.29849049	      9.23343424	     17.69298411	    -10.45400404	      1.89961905
      0.05084746	     -3.00283389	     -5.64475670	     95.73671004	      0.19188034	      0.86394406	      0.81163608	     -2.33333449	     -4.89350844	    -12.16481718	      8.53579214	      0.14897768	     22.46884935	     13.57923623	      0.00000000	     -1.69052811	      1.85357044	     10.36526622	      4.37752274	      0.07640218	     24.18594404	     -8.15224847	      0.00000000	     -0.22590330	     -0.14584832	      0.56720374	     -0.41952501	     -0.19397827	      0.60265397	     -0.37113652	     -0.35461561	      0.60265397	     -0.25818488	     -0.35461561	      0.49630327	     -0.20977380	     -0.29741390	      0.46085304	     -0.12908114	     -0.22591905	      0.42540281	     -1.61360465	     -1.64986538	      3.15461704	      0.00000000	      0.00000000	      8.33557381	      5.29107001	      1.08657597	    -94.51863866	    -77.78866198	    -27.90959012	      9.66399441	      4.83914933	     -7.09557178	     -0.78296991	   -176.55542730	    -86.99138626	    -98.28974606	      9.46040422	     13.18918327	    -10.55814540	      2.11630226
      0.06779661	     -2.89121929	     -5.67613933	     96.15811063	      0.19097424	      0.86389056	      0.81209539	     -2.33443095	     -4.80179482	    -12.53824587	      8.54054849	      0.14906069	     22.38758231	     13.53908749	      0.00000000	     -1.50015718	      1.75280129	      9.78501150	      4.61426302	      0.08053408	     24.61855838	     -6.90422116	      0.00000000	     -0.21544286	     -0.13406717	      0.49509020	     -0.40009893	     -0.17830934	      0.52603333	     -0.35395107	     -0.32597093	      0.52603333	     -0.24622964	     -0.32597093	      0.43320392	     -0.20006024	     -0.27338978	      0.40226078	     -0.12310405	     -0.20767005	      0.37131765	     -1.53888680	     -1.51659469	      2.75354315	      0.00000000	      0.00000000	      8.64807707	      4.87613953	      0.68763965	    -95.20398205	    -78.02748934	    -27.85683635	      9.72480332	      4.95395906	     -7.27382969	     -0.57937461	   -176.26973346	    -87.06004080	    -99.86263304	      9.44445027	     14.33296032	    -10.48051514	      2.15794505
